<?xml version="1.0" encoding="UTF-8"?>
<svg version="1.1" xmlns="http://www.w3.org/2000/svg" width="1198" height="217">
<path d="M0 0 C34.1859375 -0.0928125 34.1859375 -0.0928125 69.0625 -0.1875 C76.23492432 -0.21481201 83.40734863 -0.24212402 90.79711914 -0.27026367 C99.61608887 -0.28381348 99.61608887 -0.28381348 103.7563324 -0.28633118 C106.62241207 -0.28910444 109.48832177 -0.3002591 112.35435486 -0.31672668 C116.02858983 -0.33755304 119.70258343 -0.34342829 123.37687194 -0.33921683 C125.33676813 -0.34050469 127.29663864 -0.35646453 129.25646305 -0.37328625 C144.4544601 -0.32078098 161.86430353 2.07301919 173.3125 12.97265625 C180.18031111 21.22356821 181.80237169 30.5548399 181 41 C179.10610275 49.92638336 174.50701226 56.82074348 167 62 C164.06389373 63.51480642 161.08172629 64.81203295 158 66 C158.75023437 66.27972656 159.50046875 66.55945313 160.2734375 66.84765625 C171.41329267 71.21100003 180.36193527 76.09602002 186 87 C186.33902344 87.65226562 186.67804688 88.30453125 187.02734375 88.9765625 C191.37660276 99.35866465 189.94544173 112.87063691 186.25390625 123.19921875 C181.37016195 134.1077691 172.25167117 140.71897717 161.2890625 144.9375 C141.44475036 151.34801413 120.22479353 150.14495189 99.64465332 150.10128021 C96.4763195 150.09550577 93.30798688 150.09531284 90.13964844 150.09460449 C80.92642755 150.08939594 71.71321328 150.07543476 62.5 150.0625 C41.875 150.041875 21.25 150.02125 0 150 C0 100.5 0 51 0 0 Z M55 36 C55 42.6 55 49.2 55 56 C62.70209525 56.06794429 70.40407786 56.12291297 78.10640049 56.15543652 C81.68343357 56.17105115 85.26024986 56.1922116 88.8371582 56.22631836 C92.29310659 56.25906318 95.74884727 56.27688458 99.20493889 56.28463173 C101.15635408 56.29282164 103.10768644 56.31621678 105.05897522 56.33988953 C111.42421522 56.34109074 116.47557928 56.33867802 122 53 C124.45928744 49.31106884 124.69305579 46.28358579 124 42 C121.8755173 38.55687286 120.85147359 37.28382453 117 36 C114.99095356 35.9109984 112.97903032 35.88239548 110.96801758 35.88647461 C109.10642754 35.88658791 109.10642754 35.88658791 107.20722961 35.88670349 C105.85299642 35.89181009 104.49876363 35.89702609 103.14453125 35.90234375 C101.75876415 35.90420917 100.37299639 35.90563249 98.98722839 35.90663147 C95.3425209 35.9104469 91.69785335 35.92026887 88.05316162 35.93133545 C84.33297262 35.9415705 80.61277715 35.94613358 76.89257812 35.95117188 C69.59503178 35.96189202 62.29752658 35.97948093 55 36 Z M55 89 C55 96.59 55 104.18 55 112 C63.33679047 112.09061729 71.67319362 112.16389703 80.01034546 112.20724869 C83.8822469 112.22806256 87.75379192 112.2562651 91.62548828 112.30175781 C95.36674468 112.34543929 99.10765974 112.36918367 102.84915161 112.37950897 C104.27163053 112.38686064 105.69409223 112.40121638 107.11642456 112.42292023 C118.20486482 112.59547528 118.20486482 112.59547528 128 108 C130.35080876 104.20258678 130.8340707 100.37018293 130 96 C127.32788649 92.27523571 124.7579049 90.5507929 120.34762573 89.3838501 C114.80387872 88.47741608 109.13670814 88.76072321 103.53515625 88.8046875 C102.1326874 88.80842292 100.73021593 88.81126739 99.32774353 88.81326294 C95.65673473 88.82085779 91.98588705 88.84047002 88.31494141 88.8626709 C84.56089456 88.88321928 80.80682139 88.89228379 77.05273438 88.90234375 C69.70174136 88.92372037 62.35091388 88.95886804 55 89 Z " fill="#FFFFFF" transform="translate(448,31)"/>
<path d="M0 0 C3.20485971 0.01610237 6.40845895 0.00003335 9.61328125 -0.01904297 C33.6263012 -0.04400979 59.58430887 1.79063201 79.51953125 16.70361328 C86.06706321 23.25114524 91.08310891 31.36515122 91.2505188 40.85670471 C91.24276932 42.19933632 91.24276932 42.19933632 91.23486328 43.5690918 C91.23084503 44.47152115 91.22682678 45.3739505 91.22268677 46.3037262 C91.21493729 47.3369828 91.21493729 47.3369828 91.20703125 48.39111328 C83.73157091 48.57671222 76.25660926 48.71873516 68.77930927 48.80561066 C65.30687748 48.84731498 61.83602475 48.90384074 58.36450195 48.99462891 C54.37045427 49.09842501 50.37805675 49.13703982 46.3828125 49.17236328 C45.13993973 49.21365356 43.89706696 49.25494385 42.61653137 49.29748535 C34.14986329 49.30189253 34.14986329 49.30189253 31.36724854 46.61387634 C30.03540039 44.44360352 30.03540039 44.44360352 29.07484436 42.2719574 C28.29026242 40.14069505 28.29026242 40.14069505 25.77734375 38.77001953 C24.97039062 38.50060547 24.1634375 38.23119141 23.33203125 37.95361328 C22.53023438 37.66615234 21.7284375 37.37869141 20.90234375 37.08251953 C14.7958557 35.5160726 8.78496197 35.19690367 2.51953125 35.20361328 C1.73368652 35.20441895 0.9478418 35.20522461 0.13818359 35.20605469 C-7.56488854 35.28637705 -15.99397854 35.38106584 -22.79296875 39.39111328 C-24.6999865 41.93380362 -24.79884634 43.24711221 -24.66796875 46.45361328 C-24.02694605 49.39822877 -24.02694605 49.39822877 -22.16796875 51.14111328 C-14.5287093 55.16177615 -5.73993681 55.47588546 2.72265625 55.63720703 C4.14331904 55.66848056 5.56397311 55.70015222 6.98461914 55.73217773 C8.0807402 55.75521469 8.0807402 55.75521469 9.19900513 55.77871704 C67.30523907 57.06270688 67.30523907 57.06270688 84.83203125 73.26611328 C92.77247811 82.00570576 93.42533211 91.68111624 93.51953125 102.95361328 C93.54853516 104.08347656 93.57753906 105.21333984 93.60742188 106.37744141 C93.69687421 118.32964938 90.51119985 127.67686228 82.20703125 136.39111328 C63.58466835 154.02903409 32.85765868 154.77249633 8.74804688 154.65185547 C6.20809076 154.64111776 3.66884149 154.65184133 1.12890625 154.66455078 C-24.79749448 154.68768763 -54.23005909 152.46422068 -73.75390625 133.48486328 C-82.93148688 123.72642311 -83.79296875 114.79702352 -83.79296875 101.39111328 C-64.32296875 101.39111328 -44.85296875 101.39111328 -24.79296875 101.39111328 C-23.80296875 104.36111328 -22.81296875 107.33111328 -21.79296875 110.39111328 C-13.66605459 117.73659339 -3.04722919 118.71114991 7.5546875 118.54345703 C16.68047956 118.01929519 25.40130122 117.44187977 33.20703125 112.39111328 C35.70734779 108.64063846 35.74306679 106.83255062 35.20703125 102.39111328 C32.24076631 98.21980322 29.33848938 96.7129576 24.33740234 95.72045898 C16.34436069 94.48477102 8.44183164 94.1921304 0.36477661 94.00350952 C-54.87795911 92.64750849 -54.87795911 92.64750849 -72.3359375 76.11767578 C-82.56482096 63.99658599 -82.88579965 50.53253449 -81.79296875 35.39111328 C-80.17809501 25.59349004 -74.18412689 18.66653608 -66.546875 12.60986328 C-47.62145848 0.09930126 -21.80215392 -0.12977473 0 0 Z " fill="#FFFFFF" transform="translate(109.79296875,28.60888671875)"/>
<path d="M0 0 C49.5 0 99 0 150 0 C150 12.21 150 24.42 150 37 C118.65 37 87.3 37 55 37 C55 42.94 55 48.88 55 55 C85.36 55 115.72 55 147 55 C147 67.54 147 80.08 147 93 C116.64 93 86.28 93 55 93 C55 99.27 55 105.54 55 112 C86.68 112 118.36 112 151 112 C151 124.54 151 137.08 151 150 C101.17 150 51.34 150 0 150 C0 100.5 0 51 0 0 Z " fill="#FFFFFF" transform="translate(1019,31)"/>
<path d="M0 0 C17.82 0 35.64 0 54 0 C54.04898438 5.37023438 54.09796875 10.74046875 54.1484375 16.2734375 C54.18385547 19.6914242 54.2198335 23.10938688 54.2578125 26.52734375 C54.3179381 31.94316019 54.37607693 37.35894332 54.421875 42.77490234 C54.45896108 47.14518252 54.50538177 51.51527604 54.55806351 55.88539505 C54.57648434 57.54616623 54.59163685 59.20697722 54.60334396 60.8678093 C54.43169983 79.63355726 54.43169983 79.63355726 62.6875 95.91015625 C72.59172737 105.31517861 84.58110024 106.41005354 97.66015625 106.21484375 C108.46510307 105.83477024 117.81015633 102.67423586 125.3125 94.75 C133.8938045 83.95341309 132.1744815 68.28022068 132.31640625 55.2734375 C132.33701886 53.67346717 132.35801633 52.07350175 132.37937927 50.47354126 C132.43415578 46.2946983 132.4837579 42.11580989 132.53222656 37.93688965 C132.59168044 32.90560519 132.65766006 27.87440245 132.72252655 22.84318542 C132.81997579 15.22884086 132.90921393 7.61444004 133 0 C150.82 0 168.64 0 187 0 C187.12032643 20.032122 187.12032643 20.032122 187.14648438 28.67382812 C187.1643099 34.5346711 187.18522981 40.39537142 187.22631836 46.25610352 C187.25928915 50.98941151 187.27693114 55.72256619 187.28463173 60.4559803 C187.29010843 62.24778718 187.30079936 64.03958716 187.31719017 65.83132744 C187.52343891 89.3458844 184.1046564 111.56111934 167.6875 129.53125 C145.18137398 151.14897631 113.60943265 152.6292899 84.07666016 152.08886719 C60.50560549 151.40803368 36.80332679 146.45604801 19 130 C18.37738281 129.43152344 17.75476563 128.86304688 17.11328125 128.27734375 C4.4021982 115.28061838 -0.19381039 95.8233362 -0.11352539 78.21899414 C-0.11367142 77.36941132 -0.11381744 76.51982849 -0.1139679 75.64450073 C-0.11327554 72.85802589 -0.10551507 70.0716193 -0.09765625 67.28515625 C-0.09578966 65.34459978 -0.09436689 63.40404283 -0.09336853 61.46348572 C-0.08956233 56.37212813 -0.07974832 51.28079937 -0.06866455 46.18945312 C-0.05660447 40.07200465 -0.05203916 33.95454651 -0.04621124 27.83708954 C-0.03653549 18.55803969 -0.01736566 9.27905299 0 0 Z " fill="#FFFFFF" transform="translate(229,31)"/>
<path d="M0 0 C57.42 0 114.84 0 174 0 C174 13.86 174 27.72 174 42 C154.2 42 134.4 42 114 42 C114 77.31 114 112.62 114 149 C95.85 149 77.7 149 59 149 C59 113.69 59 78.38 59 42 C39.53 42 20.06 42 0 42 C0 28.14 0 14.28 0 0 Z " fill="#FFFFFF" transform="translate(651,31)"/>
<path d="M0 0 C18.15 0 36.3 0 55 0 C55 34.98 55 69.96 55 106 C84.37 106 113.74 106 144 106 C144 120.19 144 134.38 144 149 C96.48 149 48.96 149 0 149 C0 99.83 0 50.66 0 0 Z " fill="#FFFFFF" transform="translate(850,31)"/>
</svg>
